# Blender 5.2.0 LTS
# www.blender.org
mtllib cube.mtl
o default_cube
v 1.000000 -1.000000 -1.000000
v 1.000000 -1.000000 1.000000
v -1.000000 -1.000000 1.000000
v -1.000000 -1.000000 -1.000000
v 1.000000 1.000000 -0.999999
v 0.999999 1.000000 1.000001
v -1.000000 1.000000 1.000000
v -1.000000 1.000000 -1.000000
vn 1.0000 -0.0000 -0.0000
vn -0.0000 -1.0000 -0.0000
vn -1.0000 -0.0000 -0.0000
vn -0.0000 -0.0000 -1.0000
vn -0.0000 1.0000 -0.0000
vn -0.0000 -0.0000 1.0000
vt 0.500802 0.999306
vt 0.500802 0.874189
vt 0.625919 0.874189
vt 0.625919 0.999306
vt 0.376239 0.998853
vt 0.250669 0.998853
vt 0.250669 0.873284
vt 0.376239 0.873284
vt 0.625444 0.874265
vt 0.749763 0.874265
vt 0.749763 0.998583
vt 0.625444 0.998583
vt 0.500570 0.998576
vt 0.375681 0.998576
vt 0.375681 0.873688
vt 0.500570 0.873688
vt 0.001800 0.998780
vt 0.001800 0.873839
vt 0.126740 0.873839
vt 0.126740 0.998780
vt 0.251097 0.998653
vt 0.127569 0.998653
vt 0.127569 0.875125
vt 0.251097 0.875125
s 0
usemtl default
f 1/5/2 2/6/2 3/7/2 4/8/2
f 5/13/4 1/14/4 4/15/4 8/16/4
f 5/17/5 8/18/5 7/19/5 6/20/5
f 2/21/6 6/22/6 7/23/6 3/24/6
usemtl other
f 1/1/1 5/2/1 6/3/1 2/4/1
f 4/9/3 3/10/3 7/11/3 8/12/3
